<?xml version="1.0" standalone="no"?>
<svg xmlns="http://www.w3.org/2000/svg" viewBox="0 0 183.44 52.480000000000004" width="183.44" height="52.480000000000004"><rect fill=" hsl(214deg 100% 45%)" width="183.44" height="52.480000000000004" x="0" y="0"></rect><path fill="white" fill-rule="nonzero" d="M32.96 28L24.20 28L24.20 18.08Q24.20 16.24 24.34 14.30Q24.48 12.36 24.64 11.04Q24.80 9.72 24.84 9.36L24.84 9.36L24.68 9.36L19.60 28L12.68 28L7.56 9.40L7.40 9.40Q7.44 9.76 7.62 11.06Q7.80 12.36 7.96 14.30Q8.12 16.24 8.12 18.08L8.12 18.08L8.12 28L0 28L0 0.48L12.48 0.48L16.64 16.36L16.80 16.36L20.92 0.48L32.96 0.48L32.96 28ZM66.12 28L56.76 28L55.60 24.12L45.96 24.12L44.80 28L35.76 28L45.80 0.48L56.08 0.48L66.12 28ZM50.72 8.16L47.80 17.96L53.76 17.96L50.88 8.16L50.72 8.16ZM96.84 28L89.12 28L77.56 14.64L77.56 28L69.44 28L69.44 0.48L77.16 0.48L88.72 14.04L88.72 0.48L96.84 0.48L96.84 28ZM114.32 0Q119.60 0 123.00 2.14Q126.40 4.28 126.48 8.48L126.48 8.48L126.48 8.96L118.20 8.96L118.20 8.80Q118.20 7.60 117.32 6.80Q116.44 6 114.64 6L114.64 6Q112.88 6 111.94 6.52Q111.00 7.04 111.00 7.80L111.00 7.80Q111.00 8.88 112.28 9.40Q113.56 9.92 116.40 10.48L116.40 10.48Q119.72 11.16 121.86 11.90Q124.00 12.64 125.60 14.32Q127.20 16 127.24 18.88L127.24 18.88Q127.24 23.76 123.94 26.12Q120.64 28.48 115.12 28.48L115.12 28.48Q108.68 28.48 105.10 26.32Q101.52 24.16 101.52 18.68L101.52 18.68L109.88 18.68Q109.88 20.76 110.96 21.46Q112.04 22.16 114.32 22.16L114.32 22.16Q116.00 22.16 117.10 21.80Q118.20 21.44 118.20 20.32L118.20 20.32Q118.20 19.32 116.98 18.82Q115.76 18.32 113.00 17.76L113.00 17.76Q109.64 17.04 107.44 16.26Q105.24 15.48 103.60 13.68Q101.96 11.88 101.96 8.80L101.96 8.80Q101.96 4.28 105.46 2.14Q108.96 0 114.32 0L114.32 0ZM159.44 28L150.08 28L148.92 24.12L139.28 24.12L138.12 28L129.08 28L139.12 0.48L149.40 0.48L159.44 28ZM144.04 8.16L141.12 17.96L147.08 17.96L144.20 8.16L144.04 8.16Z" transform="translate(12 12.001) scale(1)"></path></svg>